# xmcd
#
# Track frame offsets: 
#        150
#        10557
#        26277
#        38155
#        52009
#        65000
#        77713
#        96700
#        106069
#        130662
#        139711
#
# Disc length: 1956 seconds
#
# Revision: 1
# Processed by: cddbd v1.5.2PL0 Copyright (c) Steve Scherf et al.
# Submitted via: ExactAudioCopy v0.99pb4
#
DISCID=8907a20b
DTITLE=The Legendary Tiger Man - Masquerade
DYEAR=2006
DGENRE=Rock
TTITLE0=Someone Burned Down This Town
TTITLE1=The Whole World's Got The Eyes On You
TTITLE2=I Got My Night Off
TTITLE3=Say Hey Hey 
TTITLE4=Honey, You're Too Much 
TTITLE5=Route 66 (Bobby Troup)
TTITLE6=Walkin' Downtown
TTITLE7=Masquerade
TTITLE8=Let Me Give It To You 
TTITLE9=Blue Moon Baby (Dave Diddley Day)
TTITLE10=Bad Luck Rhythm 'N' Blues Machine 
EXTD=
EXTT0=
EXTT1=
EXTT2=
EXTT3=
EXTT4=
EXTT5=
EXTT6=
EXTT7=
EXTT8=
EXTT9=
EXTT10=
PLAYORDER=
